<svg width="24" height="24" viewBox="0 0 24 24" version="1.1" xmlns="http://www.w3.org/2000/svg"><path d="M 12 2.25 A 0.750075 0.750075 0 0 0 11.695312 2.3144531 L 2.6953125 6.3144531 A 0.750075 0.750075 0 0 0 2.25 7 L 2.25 16 A 0.750075 0.750075 0 0 0 2.6953125 16.685547 L 11.695312 20.685547 A 0.750075 0.750075 0 0 0 12.304688 20.685547 L 21.304688 16.685547 A 0.750075 0.750075 0 0 0 21.75 16 L 21.75 7 A 0.750075 0.750075 0 0 0 21.304688 6.3144531 L 12.304688 2.3144531 A 0.750075 0.750075 0 0 0 12 2.25 z M 12 3.8203125 L 14.960938 5.1367188 L 7.8066406 8.3164062 L 4.8476562 7 L 12 3.8203125 z M 16.191406 5.6835938 L 19.152344 7 L 12 10.179688 L 9.0390625 8.8632812 L 16.191406 5.6835938 z M 3.75 8.1542969 L 11.25 11.488281 L 11.25 18.845703 L 3.75 15.511719 L 3.75 8.1542969 z M 20.25 8.1542969 L 20.25 15.511719 L 12.75 18.845703 L 12.75 11.488281 L 20.25 8.1542969 z " /></svg>
